<mxfile host="app.diagrams.net" modified="2021-12-02T14:15:45.814Z" agent="5.0 (Windows NT 10.0; Win64; x64) AppleWebKit/537.36 (KHTML, like Gecko) Chrome/96.0.4664.45 Safari/537.36" etag="XtHgJzRG1LMJQ1FuaYTF" version="15.8.8" type="github">
  <diagram id="ZRRt96cUcteAnaAj0CVr" name="Page-1">
    <mxGraphModel dx="1038" dy="2921" grid="1" gridSize="10" guides="1" tooltips="1" connect="1" arrows="1" fold="1" page="1" pageScale="1" pageWidth="1654" pageHeight="2336" math="0" shadow="0">
      <root>
        <mxCell id="0" />
        <mxCell id="1" parent="0" />
        <mxCell id="5TTXVKUjlZvVY425EZ6K-2" value="Actor" style="shape=umlActor;verticalLabelPosition=bottom;verticalAlign=top;html=1;outlineConnect=0;" parent="1" vertex="1">
          <mxGeometry x="90" y="50" width="30" height="60" as="geometry" />
        </mxCell>
        <mxCell id="5TTXVKUjlZvVY425EZ6K-3" value="" style="shape=trapezoid;perimeter=trapezoidPerimeter;whiteSpace=wrap;html=1;fixedSize=1;" parent="1" vertex="1">
          <mxGeometry x="800" y="220" width="120" height="60" as="geometry" />
        </mxCell>
        <mxCell id="5TTXVKUjlZvVY425EZ6K-4" value="" style="shape=trapezoid;perimeter=trapezoidPerimeter;whiteSpace=wrap;html=1;fixedSize=1;" parent="1" vertex="1">
          <mxGeometry x="640" y="220" width="120" height="60" as="geometry" />
        </mxCell>
        <mxCell id="5TTXVKUjlZvVY425EZ6K-5" value="" style="shape=trapezoid;perimeter=trapezoidPerimeter;whiteSpace=wrap;html=1;fixedSize=1;" parent="1" vertex="1">
          <mxGeometry x="480" y="220" width="120" height="60" as="geometry" />
        </mxCell>
        <mxCell id="5TTXVKUjlZvVY425EZ6K-6" value="" style="shape=trapezoid;perimeter=trapezoidPerimeter;whiteSpace=wrap;html=1;fixedSize=1;" parent="1" vertex="1">
          <mxGeometry x="320" y="220" width="120" height="60" as="geometry" />
        </mxCell>
        <mxCell id="5TTXVKUjlZvVY425EZ6K-7" value="" style="ellipse;whiteSpace=wrap;html=1;aspect=fixed;" parent="1" vertex="1">
          <mxGeometry x="320" y="160" width="50" height="50" as="geometry" />
        </mxCell>
        <mxCell id="5TTXVKUjlZvVY425EZ6K-8" value="" style="ellipse;whiteSpace=wrap;html=1;aspect=fixed;" parent="1" vertex="1">
          <mxGeometry x="390" y="160" width="50" height="50" as="geometry" />
        </mxCell>
        <mxCell id="5TTXVKUjlZvVY425EZ6K-9" value="" style="ellipse;whiteSpace=wrap;html=1;aspect=fixed;" parent="1" vertex="1">
          <mxGeometry x="480" y="160" width="50" height="50" as="geometry" />
        </mxCell>
        <mxCell id="5TTXVKUjlZvVY425EZ6K-10" value="" style="ellipse;whiteSpace=wrap;html=1;aspect=fixed;" parent="1" vertex="1">
          <mxGeometry x="550" y="160" width="50" height="50" as="geometry" />
        </mxCell>
        <mxCell id="5TTXVKUjlZvVY425EZ6K-11" value="" style="ellipse;whiteSpace=wrap;html=1;aspect=fixed;" parent="1" vertex="1">
          <mxGeometry x="640" y="160" width="50" height="50" as="geometry" />
        </mxCell>
        <mxCell id="5TTXVKUjlZvVY425EZ6K-12" value="" style="ellipse;whiteSpace=wrap;html=1;aspect=fixed;" parent="1" vertex="1">
          <mxGeometry x="710" y="160" width="50" height="50" as="geometry" />
        </mxCell>
        <mxCell id="5TTXVKUjlZvVY425EZ6K-13" value="" style="ellipse;whiteSpace=wrap;html=1;aspect=fixed;" parent="1" vertex="1">
          <mxGeometry x="800" y="160" width="50" height="50" as="geometry" />
        </mxCell>
        <mxCell id="5TTXVKUjlZvVY425EZ6K-14" value="" style="ellipse;whiteSpace=wrap;html=1;aspect=fixed;" parent="1" vertex="1">
          <mxGeometry x="870" y="160" width="50" height="50" as="geometry" />
        </mxCell>
        <mxCell id="5TTXVKUjlZvVY425EZ6K-16" value="" style="rounded=0;whiteSpace=wrap;html=1;" parent="1" vertex="1">
          <mxGeometry x="320" y="300" width="280" height="60" as="geometry" />
        </mxCell>
        <mxCell id="5TTXVKUjlZvVY425EZ6K-18" value="" style="rounded=0;whiteSpace=wrap;html=1;" parent="1" vertex="1">
          <mxGeometry x="640" y="300" width="280" height="60" as="geometry" />
        </mxCell>
        <mxCell id="5TTXVKUjlZvVY425EZ6K-19" value="Actor" style="shape=umlActor;verticalLabelPosition=bottom;verticalAlign=top;html=1;outlineConnect=0;" parent="1" vertex="1">
          <mxGeometry x="330" y="370" width="30" height="60" as="geometry" />
        </mxCell>
        <mxCell id="5TTXVKUjlZvVY425EZ6K-20" value="Actor" style="shape=umlActor;verticalLabelPosition=bottom;verticalAlign=top;html=1;outlineConnect=0;" parent="1" vertex="1">
          <mxGeometry x="380" y="370" width="30" height="60" as="geometry" />
        </mxCell>
        <mxCell id="5TTXVKUjlZvVY425EZ6K-21" value="Actor" style="shape=umlActor;verticalLabelPosition=bottom;verticalAlign=top;html=1;outlineConnect=0;" parent="1" vertex="1">
          <mxGeometry x="510" y="370" width="30" height="60" as="geometry" />
        </mxCell>
        <mxCell id="5TTXVKUjlZvVY425EZ6K-22" value="Actor" style="shape=umlActor;verticalLabelPosition=bottom;verticalAlign=top;html=1;outlineConnect=0;" parent="1" vertex="1">
          <mxGeometry x="560" y="370" width="30" height="60" as="geometry" />
        </mxCell>
        <mxCell id="5TTXVKUjlZvVY425EZ6K-23" value="Actor" style="shape=umlActor;verticalLabelPosition=bottom;verticalAlign=top;html=1;outlineConnect=0;" parent="1" vertex="1">
          <mxGeometry x="650" y="370" width="30" height="60" as="geometry" />
        </mxCell>
        <mxCell id="5TTXVKUjlZvVY425EZ6K-24" value="Actor" style="shape=umlActor;verticalLabelPosition=bottom;verticalAlign=top;html=1;outlineConnect=0;" parent="1" vertex="1">
          <mxGeometry x="700" y="370" width="30" height="60" as="geometry" />
        </mxCell>
        <mxCell id="5TTXVKUjlZvVY425EZ6K-25" value="Actor" style="shape=umlActor;verticalLabelPosition=bottom;verticalAlign=top;html=1;outlineConnect=0;" parent="1" vertex="1">
          <mxGeometry x="830" y="370" width="30" height="60" as="geometry" />
        </mxCell>
        <mxCell id="5TTXVKUjlZvVY425EZ6K-26" value="Actor" style="shape=umlActor;verticalLabelPosition=bottom;verticalAlign=top;html=1;outlineConnect=0;" parent="1" vertex="1">
          <mxGeometry x="880" y="370" width="30" height="60" as="geometry" />
        </mxCell>
        <mxCell id="5TTXVKUjlZvVY425EZ6K-29" value="" style="rounded=0;whiteSpace=wrap;html=1;fillColor=none;strokeColor=#FF0000;" parent="1" vertex="1">
          <mxGeometry x="780" y="150" width="160" height="310" as="geometry" />
        </mxCell>
        <mxCell id="5TTXVKUjlZvVY425EZ6K-30" value="" style="rounded=0;whiteSpace=wrap;html=1;fillColor=none;strokeColor=#FF0000;" parent="1" vertex="1">
          <mxGeometry x="620" y="150" width="160" height="310" as="geometry" />
        </mxCell>
        <mxCell id="5TTXVKUjlZvVY425EZ6K-31" value="" style="rounded=0;whiteSpace=wrap;html=1;fillColor=none;strokeColor=#FF0000;" parent="1" vertex="1">
          <mxGeometry x="460" y="150" width="160" height="310" as="geometry" />
        </mxCell>
        <mxCell id="5TTXVKUjlZvVY425EZ6K-32" value="" style="rounded=0;whiteSpace=wrap;html=1;fillColor=none;strokeColor=#FF0000;" parent="1" vertex="1">
          <mxGeometry x="300" y="150" width="160" height="310" as="geometry" />
        </mxCell>
        <mxCell id="5TTXVKUjlZvVY425EZ6K-37" value="Actor" style="shape=umlActor;verticalLabelPosition=bottom;verticalAlign=top;html=1;outlineConnect=0;" parent="1" vertex="1">
          <mxGeometry x="600" y="1133" width="40" height="70" as="geometry" />
        </mxCell>
        <mxCell id="5TTXVKUjlZvVY425EZ6K-48" value="Choice 1" style="swimlane;startSize=20;horizontal=1;childLayout=flowLayout;flowOrientation=north;resizable=0;interRankCellSpacing=50;containerType=tree;strokeColor=#FF8000;fillColor=none;" parent="1" vertex="1">
          <mxGeometry x="320" y="720" width="270" height="280" as="geometry" />
        </mxCell>
        <mxCell id="5TTXVKUjlZvVY425EZ6K-49" value="Start" style="whiteSpace=wrap;html=1;strokeColor=#FF8000;fillColor=none;" parent="5TTXVKUjlZvVY425EZ6K-48" vertex="1">
          <mxGeometry x="85" y="40" width="100" height="40" as="geometry" />
        </mxCell>
        <mxCell id="5TTXVKUjlZvVY425EZ6K-50" value="Task" style="whiteSpace=wrap;html=1;strokeColor=#FF8000;fillColor=none;" parent="5TTXVKUjlZvVY425EZ6K-48" vertex="1">
          <mxGeometry x="20" y="130" width="100" height="40" as="geometry" />
        </mxCell>
        <mxCell id="5TTXVKUjlZvVY425EZ6K-51" value="" style="html=1;curved=1;rounded=0;noEdgeStyle=1;orthogonal=1;" parent="5TTXVKUjlZvVY425EZ6K-48" source="5TTXVKUjlZvVY425EZ6K-49" target="5TTXVKUjlZvVY425EZ6K-50" edge="1">
          <mxGeometry relative="1" as="geometry">
            <Array as="points">
              <mxPoint x="112.5" y="92" />
              <mxPoint x="70" y="118" />
            </Array>
          </mxGeometry>
        </mxCell>
        <mxCell id="5TTXVKUjlZvVY425EZ6K-52" value="Task" style="whiteSpace=wrap;html=1;strokeColor=#FF8000;fillColor=none;" parent="5TTXVKUjlZvVY425EZ6K-48" vertex="1">
          <mxGeometry x="150" y="130" width="100" height="40" as="geometry" />
        </mxCell>
        <mxCell id="5TTXVKUjlZvVY425EZ6K-53" value="" style="html=1;curved=1;rounded=0;noEdgeStyle=1;orthogonal=1;" parent="5TTXVKUjlZvVY425EZ6K-48" source="5TTXVKUjlZvVY425EZ6K-49" target="5TTXVKUjlZvVY425EZ6K-52" edge="1">
          <mxGeometry relative="1" as="geometry">
            <Array as="points">
              <mxPoint x="157.5" y="92" />
              <mxPoint x="200" y="118" />
            </Array>
          </mxGeometry>
        </mxCell>
        <mxCell id="5TTXVKUjlZvVY425EZ6K-54" value="End" style="whiteSpace=wrap;html=1;strokeColor=#FF8000;fillColor=none;" parent="5TTXVKUjlZvVY425EZ6K-48" vertex="1">
          <mxGeometry x="85" y="220" width="100" height="40" as="geometry" />
        </mxCell>
        <mxCell id="5TTXVKUjlZvVY425EZ6K-55" value="" style="html=1;curved=1;rounded=0;noEdgeStyle=1;orthogonal=1;" parent="5TTXVKUjlZvVY425EZ6K-48" source="5TTXVKUjlZvVY425EZ6K-50" target="5TTXVKUjlZvVY425EZ6K-54" edge="1">
          <mxGeometry relative="1" as="geometry">
            <Array as="points">
              <mxPoint x="70" y="182" />
              <mxPoint x="112.5" y="208" />
            </Array>
          </mxGeometry>
        </mxCell>
        <mxCell id="5TTXVKUjlZvVY425EZ6K-56" value="" style="html=1;curved=1;rounded=0;noEdgeStyle=1;orthogonal=1;" parent="5TTXVKUjlZvVY425EZ6K-48" source="5TTXVKUjlZvVY425EZ6K-52" target="5TTXVKUjlZvVY425EZ6K-54" edge="1">
          <mxGeometry relative="1" as="geometry">
            <Array as="points">
              <mxPoint x="200" y="182" />
              <mxPoint x="157.5" y="208" />
            </Array>
          </mxGeometry>
        </mxCell>
        <mxCell id="5TTXVKUjlZvVY425EZ6K-57" value="Choice 2" style="swimlane;startSize=20;horizontal=1;childLayout=flowLayout;flowOrientation=north;resizable=0;interRankCellSpacing=50;containerType=tree;strokeColor=#FF8000;fillColor=none;" parent="1" vertex="1">
          <mxGeometry x="640" y="720" width="270" height="280" as="geometry" />
        </mxCell>
        <mxCell id="5TTXVKUjlZvVY425EZ6K-58" value="Start" style="whiteSpace=wrap;html=1;strokeColor=#FF8000;fillColor=none;" parent="5TTXVKUjlZvVY425EZ6K-57" vertex="1">
          <mxGeometry x="85" y="40" width="100" height="40" as="geometry" />
        </mxCell>
        <mxCell id="5TTXVKUjlZvVY425EZ6K-59" value="Task" style="whiteSpace=wrap;html=1;strokeColor=#FF8000;fillColor=none;" parent="5TTXVKUjlZvVY425EZ6K-57" vertex="1">
          <mxGeometry x="20" y="130" width="100" height="40" as="geometry" />
        </mxCell>
        <mxCell id="5TTXVKUjlZvVY425EZ6K-60" value="" style="html=1;curved=1;rounded=0;noEdgeStyle=1;orthogonal=1;" parent="5TTXVKUjlZvVY425EZ6K-57" source="5TTXVKUjlZvVY425EZ6K-58" target="5TTXVKUjlZvVY425EZ6K-59" edge="1">
          <mxGeometry relative="1" as="geometry">
            <Array as="points">
              <mxPoint x="112.5" y="92" />
              <mxPoint x="70" y="118" />
            </Array>
          </mxGeometry>
        </mxCell>
        <mxCell id="5TTXVKUjlZvVY425EZ6K-61" value="Task" style="whiteSpace=wrap;html=1;strokeColor=#FF8000;fillColor=none;" parent="5TTXVKUjlZvVY425EZ6K-57" vertex="1">
          <mxGeometry x="150" y="130" width="100" height="40" as="geometry" />
        </mxCell>
        <mxCell id="5TTXVKUjlZvVY425EZ6K-62" value="" style="html=1;curved=1;rounded=0;noEdgeStyle=1;orthogonal=1;" parent="5TTXVKUjlZvVY425EZ6K-57" source="5TTXVKUjlZvVY425EZ6K-58" target="5TTXVKUjlZvVY425EZ6K-61" edge="1">
          <mxGeometry relative="1" as="geometry">
            <Array as="points">
              <mxPoint x="157.5" y="92" />
              <mxPoint x="200" y="118" />
            </Array>
          </mxGeometry>
        </mxCell>
        <mxCell id="5TTXVKUjlZvVY425EZ6K-63" value="End" style="whiteSpace=wrap;html=1;strokeColor=#FF8000;fillColor=none;" parent="5TTXVKUjlZvVY425EZ6K-57" vertex="1">
          <mxGeometry x="85" y="220" width="100" height="40" as="geometry" />
        </mxCell>
        <mxCell id="5TTXVKUjlZvVY425EZ6K-64" value="" style="html=1;curved=1;rounded=0;noEdgeStyle=1;orthogonal=1;" parent="5TTXVKUjlZvVY425EZ6K-57" source="5TTXVKUjlZvVY425EZ6K-59" target="5TTXVKUjlZvVY425EZ6K-63" edge="1">
          <mxGeometry relative="1" as="geometry">
            <Array as="points">
              <mxPoint x="70" y="182" />
              <mxPoint x="112.5" y="208" />
            </Array>
          </mxGeometry>
        </mxCell>
        <mxCell id="5TTXVKUjlZvVY425EZ6K-65" value="" style="html=1;curved=1;rounded=0;noEdgeStyle=1;orthogonal=1;" parent="5TTXVKUjlZvVY425EZ6K-57" source="5TTXVKUjlZvVY425EZ6K-61" target="5TTXVKUjlZvVY425EZ6K-63" edge="1">
          <mxGeometry relative="1" as="geometry">
            <Array as="points">
              <mxPoint x="200" y="182" />
              <mxPoint x="157.5" y="208" />
            </Array>
          </mxGeometry>
        </mxCell>
        <mxCell id="5TTXVKUjlZvVY425EZ6K-77" value="" style="html=1;shadow=0;dashed=0;align=center;verticalAlign=middle;shape=mxgraph.arrows2.triadArrow;dy=10;dx=20;arrowHead=40;strokeColor=#FF8000;fillColor=none;" parent="1" vertex="1">
          <mxGeometry x="10" y="-100" width="100" height="70" as="geometry" />
        </mxCell>
        <mxCell id="5TTXVKUjlZvVY425EZ6K-79" value="0" style="label;fontStyle=0;strokeColor=none;fillColor=none;align=left;verticalAlign=top;overflow=hidden;spacingLeft=28;spacingRight=4;rotatable=0;points=[[0,0.5],[1,0.5]];portConstraint=eastwest;imageWidth=16;imageHeight=16;image=img/clipart/Gear_128x128.png" parent="1" vertex="1">
          <mxGeometry x="320" y="10" width="120" height="26" as="geometry" />
        </mxCell>
        <mxCell id="5TTXVKUjlZvVY425EZ6K-80" value="1" style="label;fontStyle=0;strokeColor=none;fillColor=none;align=left;verticalAlign=top;overflow=hidden;spacingLeft=28;spacingRight=4;rotatable=0;points=[[0,0.5],[1,0.5]];portConstraint=eastwest;imageWidth=16;imageHeight=16;image=img/clipart/Gear_128x128.png" parent="1" vertex="1">
          <mxGeometry x="320" y="36" width="120" height="26" as="geometry" />
        </mxCell>
        <mxCell id="5TTXVKUjlZvVY425EZ6K-81" value="2" style="label;fontStyle=0;strokeColor=none;fillColor=none;align=left;verticalAlign=top;overflow=hidden;spacingLeft=28;spacingRight=4;rotatable=0;points=[[0,0.5],[1,0.5]];portConstraint=eastwest;imageWidth=16;imageHeight=16;image=img/clipart/Gear_128x128.png" parent="1" vertex="1">
          <mxGeometry x="320" y="62" width="120" height="26" as="geometry" />
        </mxCell>
        <mxCell id="5TTXVKUjlZvVY425EZ6K-82" value="3" style="label;fontStyle=0;strokeColor=none;fillColor=none;align=left;verticalAlign=top;overflow=hidden;spacingLeft=28;spacingRight=4;rotatable=0;points=[[0,0.5],[1,0.5]];portConstraint=eastwest;imageWidth=16;imageHeight=16;image=img/clipart/Gear_128x128.png" parent="1" vertex="1">
          <mxGeometry x="320" y="88" width="120" height="26" as="geometry" />
        </mxCell>
        <mxCell id="5TTXVKUjlZvVY425EZ6K-83" value="4" style="label;fontStyle=0;strokeColor=none;fillColor=none;align=left;verticalAlign=top;overflow=hidden;spacingLeft=28;spacingRight=4;rotatable=0;points=[[0,0.5],[1,0.5]];portConstraint=eastwest;imageWidth=16;imageHeight=16;image=img/clipart/Gear_128x128.png" parent="1" vertex="1">
          <mxGeometry x="320" y="114" width="120" height="26" as="geometry" />
        </mxCell>
        <mxCell id="5TTXVKUjlZvVY425EZ6K-84" value="5" style="label;fontStyle=0;strokeColor=none;fillColor=none;align=left;verticalAlign=top;overflow=hidden;spacingLeft=28;spacingRight=4;rotatable=0;points=[[0,0.5],[1,0.5]];portConstraint=eastwest;imageWidth=16;imageHeight=16;image=img/clipart/Gear_128x128.png" parent="1" vertex="1">
          <mxGeometry x="480" y="10" width="120" height="26" as="geometry" />
        </mxCell>
        <mxCell id="5TTXVKUjlZvVY425EZ6K-85" value="6" style="label;fontStyle=0;strokeColor=none;fillColor=none;align=left;verticalAlign=top;overflow=hidden;spacingLeft=28;spacingRight=4;rotatable=0;points=[[0,0.5],[1,0.5]];portConstraint=eastwest;imageWidth=16;imageHeight=16;image=img/clipart/Gear_128x128.png" parent="1" vertex="1">
          <mxGeometry x="480" y="36" width="120" height="26" as="geometry" />
        </mxCell>
        <mxCell id="5TTXVKUjlZvVY425EZ6K-86" value="7" style="label;fontStyle=0;strokeColor=none;fillColor=none;align=left;verticalAlign=top;overflow=hidden;spacingLeft=28;spacingRight=4;rotatable=0;points=[[0,0.5],[1,0.5]];portConstraint=eastwest;imageWidth=16;imageHeight=16;image=img/clipart/Gear_128x128.png" parent="1" vertex="1">
          <mxGeometry x="480" y="62" width="120" height="26" as="geometry" />
        </mxCell>
        <mxCell id="5TTXVKUjlZvVY425EZ6K-87" value="8" style="label;fontStyle=0;strokeColor=none;fillColor=none;align=left;verticalAlign=top;overflow=hidden;spacingLeft=28;spacingRight=4;rotatable=0;points=[[0,0.5],[1,0.5]];portConstraint=eastwest;imageWidth=16;imageHeight=16;image=img/clipart/Gear_128x128.png" parent="1" vertex="1">
          <mxGeometry x="480" y="88" width="120" height="26" as="geometry" />
        </mxCell>
        <mxCell id="5TTXVKUjlZvVY425EZ6K-88" value="9" style="label;fontStyle=0;strokeColor=none;fillColor=none;align=left;verticalAlign=top;overflow=hidden;spacingLeft=28;spacingRight=4;rotatable=0;points=[[0,0.5],[1,0.5]];portConstraint=eastwest;imageWidth=16;imageHeight=16;image=img/clipart/Gear_128x128.png" parent="1" vertex="1">
          <mxGeometry x="480" y="114" width="120" height="26" as="geometry" />
        </mxCell>
        <mxCell id="5TTXVKUjlZvVY425EZ6K-89" value="10" style="label;fontStyle=0;strokeColor=none;fillColor=none;align=left;verticalAlign=top;overflow=hidden;spacingLeft=28;spacingRight=4;rotatable=0;points=[[0,0.5],[1,0.5]];portConstraint=eastwest;imageWidth=16;imageHeight=16;image=img/clipart/Gear_128x128.png" parent="1" vertex="1">
          <mxGeometry x="640" y="10" width="120" height="26" as="geometry" />
        </mxCell>
        <mxCell id="5TTXVKUjlZvVY425EZ6K-90" value="11" style="label;fontStyle=0;strokeColor=none;fillColor=none;align=left;verticalAlign=top;overflow=hidden;spacingLeft=28;spacingRight=4;rotatable=0;points=[[0,0.5],[1,0.5]];portConstraint=eastwest;imageWidth=16;imageHeight=16;image=img/clipart/Gear_128x128.png" parent="1" vertex="1">
          <mxGeometry x="640" y="36" width="120" height="26" as="geometry" />
        </mxCell>
        <mxCell id="5TTXVKUjlZvVY425EZ6K-91" value="12" style="label;fontStyle=0;strokeColor=none;fillColor=none;align=left;verticalAlign=top;overflow=hidden;spacingLeft=28;spacingRight=4;rotatable=0;points=[[0,0.5],[1,0.5]];portConstraint=eastwest;imageWidth=16;imageHeight=16;image=img/clipart/Gear_128x128.png" parent="1" vertex="1">
          <mxGeometry x="640" y="62" width="120" height="26" as="geometry" />
        </mxCell>
        <mxCell id="5TTXVKUjlZvVY425EZ6K-92" value="13" style="label;fontStyle=0;strokeColor=none;fillColor=none;align=left;verticalAlign=top;overflow=hidden;spacingLeft=28;spacingRight=4;rotatable=0;points=[[0,0.5],[1,0.5]];portConstraint=eastwest;imageWidth=16;imageHeight=16;image=img/clipart/Gear_128x128.png" parent="1" vertex="1">
          <mxGeometry x="640" y="88" width="120" height="26" as="geometry" />
        </mxCell>
        <mxCell id="5TTXVKUjlZvVY425EZ6K-93" value="14" style="label;fontStyle=0;strokeColor=none;fillColor=none;align=left;verticalAlign=top;overflow=hidden;spacingLeft=28;spacingRight=4;rotatable=0;points=[[0,0.5],[1,0.5]];portConstraint=eastwest;imageWidth=16;imageHeight=16;image=img/clipart/Gear_128x128.png" parent="1" vertex="1">
          <mxGeometry x="640" y="114" width="120" height="26" as="geometry" />
        </mxCell>
        <mxCell id="5TTXVKUjlZvVY425EZ6K-94" value="15" style="label;fontStyle=0;strokeColor=none;fillColor=none;align=left;verticalAlign=top;overflow=hidden;spacingLeft=28;spacingRight=4;rotatable=0;points=[[0,0.5],[1,0.5]];portConstraint=eastwest;imageWidth=16;imageHeight=16;image=img/clipart/Gear_128x128.png" parent="1" vertex="1">
          <mxGeometry x="785" y="10" width="120" height="26" as="geometry" />
        </mxCell>
        <mxCell id="5TTXVKUjlZvVY425EZ6K-95" value="16" style="label;fontStyle=0;strokeColor=none;fillColor=none;align=left;verticalAlign=top;overflow=hidden;spacingLeft=28;spacingRight=4;rotatable=0;points=[[0,0.5],[1,0.5]];portConstraint=eastwest;imageWidth=16;imageHeight=16;image=img/clipart/Gear_128x128.png" parent="1" vertex="1">
          <mxGeometry x="785" y="36" width="120" height="26" as="geometry" />
        </mxCell>
        <mxCell id="5TTXVKUjlZvVY425EZ6K-96" value="17" style="label;fontStyle=0;strokeColor=none;fillColor=none;align=left;verticalAlign=top;overflow=hidden;spacingLeft=28;spacingRight=4;rotatable=0;points=[[0,0.5],[1,0.5]];portConstraint=eastwest;imageWidth=16;imageHeight=16;image=img/clipart/Gear_128x128.png" parent="1" vertex="1">
          <mxGeometry x="785" y="62" width="120" height="26" as="geometry" />
        </mxCell>
        <mxCell id="5TTXVKUjlZvVY425EZ6K-97" value="18" style="label;fontStyle=0;strokeColor=none;fillColor=none;align=left;verticalAlign=top;overflow=hidden;spacingLeft=28;spacingRight=4;rotatable=0;points=[[0,0.5],[1,0.5]];portConstraint=eastwest;imageWidth=16;imageHeight=16;image=img/clipart/Gear_128x128.png" parent="1" vertex="1">
          <mxGeometry x="785" y="88" width="120" height="26" as="geometry" />
        </mxCell>
        <mxCell id="5TTXVKUjlZvVY425EZ6K-98" value="19" style="label;fontStyle=0;strokeColor=none;fillColor=none;align=left;verticalAlign=top;overflow=hidden;spacingLeft=28;spacingRight=4;rotatable=0;points=[[0,0.5],[1,0.5]];portConstraint=eastwest;imageWidth=16;imageHeight=16;image=img/clipart/Gear_128x128.png" parent="1" vertex="1">
          <mxGeometry x="785" y="114" width="120" height="26" as="geometry" />
        </mxCell>
        <mxCell id="5TTXVKUjlZvVY425EZ6K-99" value="" style="ellipse;html=1;shape=startState;fillColor=#000000;strokeColor=#ff0000;" parent="1" vertex="1">
          <mxGeometry x="150" y="97" width="30" height="30" as="geometry" />
        </mxCell>
        <mxCell id="5TTXVKUjlZvVY425EZ6K-100" value="" style="edgeStyle=orthogonalEdgeStyle;html=1;verticalAlign=bottom;endArrow=open;endSize=8;strokeColor=#ff0000;rounded=0;" parent="1" source="5TTXVKUjlZvVY425EZ6K-99" edge="1">
          <mxGeometry relative="1" as="geometry">
            <mxPoint x="165" y="187" as="targetPoint" />
          </mxGeometry>
        </mxCell>
        <mxCell id="5TTXVKUjlZvVY425EZ6K-101" value="suspect 1&lt;span style=&quot;white-space: pre&quot;&gt; &lt;/span&gt;" style="ellipse;whiteSpace=wrap;html=1;strokeColor=#FF8000;fillColor=none;" parent="1" vertex="1">
          <mxGeometry x="180" y="490" width="140" height="70" as="geometry" />
        </mxCell>
        <mxCell id="5TTXVKUjlZvVY425EZ6K-102" value="suspect 2" style="ellipse;whiteSpace=wrap;html=1;strokeColor=#FF8000;fillColor=none;" parent="1" vertex="1">
          <mxGeometry x="330" y="490" width="140" height="70" as="geometry" />
        </mxCell>
        <mxCell id="5TTXVKUjlZvVY425EZ6K-103" value="suspect 3" style="ellipse;whiteSpace=wrap;html=1;strokeColor=#FF8000;fillColor=none;" parent="1" vertex="1">
          <mxGeometry x="480" y="490" width="140" height="70" as="geometry" />
        </mxCell>
        <mxCell id="5TTXVKUjlZvVY425EZ6K-104" value="suspect 4" style="ellipse;whiteSpace=wrap;html=1;strokeColor=#FF8000;fillColor=none;" parent="1" vertex="1">
          <mxGeometry x="630" y="490" width="140" height="70" as="geometry" />
        </mxCell>
        <mxCell id="5TTXVKUjlZvVY425EZ6K-105" value="suspect 5" style="ellipse;whiteSpace=wrap;html=1;strokeColor=#FF8000;fillColor=none;" parent="1" vertex="1">
          <mxGeometry x="780" y="490" width="140" height="70" as="geometry" />
        </mxCell>
        <mxCell id="5TTXVKUjlZvVY425EZ6K-106" value="suspect 6" style="ellipse;whiteSpace=wrap;html=1;strokeColor=#FF8000;fillColor=none;" parent="1" vertex="1">
          <mxGeometry x="930" y="490" width="140" height="70" as="geometry" />
        </mxCell>
        <mxCell id="BTbRAFkYMJewCLEARAWJ-13" style="edgeStyle=orthogonalEdgeStyle;rounded=0;orthogonalLoop=1;jettySize=auto;html=1;entryX=0;entryY=0;entryDx=0;entryDy=0;" edge="1" parent="1" source="5TTXVKUjlZvVY425EZ6K-107" target="BTbRAFkYMJewCLEARAWJ-2">
          <mxGeometry relative="1" as="geometry">
            <Array as="points">
              <mxPoint x="135" y="-10" />
              <mxPoint x="655" y="-10" />
              <mxPoint x="655" y="10" />
              <mxPoint x="1120" y="10" />
            </Array>
          </mxGeometry>
        </mxCell>
        <mxCell id="5TTXVKUjlZvVY425EZ6K-107" value="3 8 16 4 10" style="html=1;strokeColor=#FF8000;fillColor=none;" parent="1" vertex="1">
          <mxGeometry x="80" y="200" width="110" height="50" as="geometry" />
        </mxCell>
        <mxCell id="5TTXVKUjlZvVY425EZ6K-112" value="3" style="text;align=center;fontStyle=1;verticalAlign=middle;spacingLeft=3;spacingRight=3;strokeColor=none;rotatable=0;points=[[0,0.5],[1,0.5]];portConstraint=eastwest;fillColor=none;" parent="1" vertex="1">
          <mxGeometry x="305" y="172" width="80" height="26" as="geometry" />
        </mxCell>
        <mxCell id="5TTXVKUjlZvVY425EZ6K-113" value="8" style="text;align=center;fontStyle=1;verticalAlign=middle;spacingLeft=3;spacingRight=3;strokeColor=none;rotatable=0;points=[[0,0.5],[1,0.5]];portConstraint=eastwest;fillColor=none;" parent="1" vertex="1">
          <mxGeometry x="375" y="172" width="80" height="26" as="geometry" />
        </mxCell>
        <mxCell id="5TTXVKUjlZvVY425EZ6K-114" value="16" style="text;align=center;fontStyle=1;verticalAlign=middle;spacingLeft=3;spacingRight=3;strokeColor=none;rotatable=0;points=[[0,0.5],[1,0.5]];portConstraint=eastwest;fillColor=none;" parent="1" vertex="1">
          <mxGeometry x="340" y="237" width="80" height="26" as="geometry" />
        </mxCell>
        <mxCell id="5TTXVKUjlZvVY425EZ6K-115" value="4" style="text;align=center;fontStyle=1;verticalAlign=middle;spacingLeft=3;spacingRight=3;strokeColor=none;rotatable=0;points=[[0,0.5],[1,0.5]];portConstraint=eastwest;fillColor=none;" parent="1" vertex="1">
          <mxGeometry x="340" y="317" width="80" height="26" as="geometry" />
        </mxCell>
        <mxCell id="5TTXVKUjlZvVY425EZ6K-116" value="10" style="text;align=center;fontStyle=1;verticalAlign=middle;spacingLeft=3;spacingRight=3;strokeColor=none;rotatable=0;points=[[0,0.5],[1,0.5]];portConstraint=eastwest;fillColor=none;" parent="1" vertex="1">
          <mxGeometry x="390" y="400" width="80" height="26" as="geometry" />
        </mxCell>
        <mxCell id="BTbRAFkYMJewCLEARAWJ-1" value="Patrol" style="swimlane;fontStyle=1;align=center;verticalAlign=middle;childLayout=stackLayout;horizontal=1;startSize=30;horizontalStack=0;resizeParent=0;resizeLast=1;container=0;fontColor=#000000;collapsible=0;rounded=1;arcSize=30;strokeColor=#ff0000;fillColor=#ffffc0;swimlaneFillColor=#ffffc0;dropTarget=0;" vertex="1" parent="1">
          <mxGeometry x="1120" width="160" height="60" as="geometry" />
        </mxCell>
        <mxCell id="BTbRAFkYMJewCLEARAWJ-2" value="4" style="text;html=1;strokeColor=none;fillColor=none;align=center;verticalAlign=middle;spacingLeft=4;spacingRight=4;whiteSpace=wrap;overflow=hidden;rotatable=0;fontColor=#000000;" vertex="1" parent="BTbRAFkYMJewCLEARAWJ-1">
          <mxGeometry y="30" width="160" height="30" as="geometry" />
        </mxCell>
        <mxCell id="BTbRAFkYMJewCLEARAWJ-3" value="" style="edgeStyle=orthogonalEdgeStyle;html=1;verticalAlign=bottom;endArrow=open;endSize=8;strokeColor=#ff0000;rounded=0;" edge="1" parent="1" source="BTbRAFkYMJewCLEARAWJ-1">
          <mxGeometry relative="1" as="geometry">
            <mxPoint x="1200" y="120" as="targetPoint" />
          </mxGeometry>
        </mxCell>
        <mxCell id="BTbRAFkYMJewCLEARAWJ-4" value="Activity" style="rounded=1;whiteSpace=wrap;html=1;arcSize=40;fontColor=#000000;fillColor=#ffffc0;strokeColor=#ff0000;" vertex="1" parent="1">
          <mxGeometry x="1140" y="122" width="120" height="40" as="geometry" />
        </mxCell>
        <mxCell id="BTbRAFkYMJewCLEARAWJ-5" value="" style="edgeStyle=orthogonalEdgeStyle;html=1;verticalAlign=bottom;endArrow=open;endSize=8;strokeColor=#ff0000;rounded=0;" edge="1" parent="1" source="BTbRAFkYMJewCLEARAWJ-4">
          <mxGeometry relative="1" as="geometry">
            <mxPoint x="1200" y="222" as="targetPoint" />
          </mxGeometry>
        </mxCell>
        <mxCell id="BTbRAFkYMJewCLEARAWJ-6" value="Activity" style="rounded=1;whiteSpace=wrap;html=1;arcSize=40;fontColor=#000000;fillColor=#ffffc0;strokeColor=#ff0000;" vertex="1" parent="1">
          <mxGeometry x="1140" y="222" width="120" height="40" as="geometry" />
        </mxCell>
        <mxCell id="BTbRAFkYMJewCLEARAWJ-7" value="" style="edgeStyle=orthogonalEdgeStyle;html=1;verticalAlign=bottom;endArrow=open;endSize=8;strokeColor=#ff0000;rounded=0;" edge="1" parent="1" source="BTbRAFkYMJewCLEARAWJ-6">
          <mxGeometry relative="1" as="geometry">
            <mxPoint x="1200" y="322" as="targetPoint" />
          </mxGeometry>
        </mxCell>
        <mxCell id="BTbRAFkYMJewCLEARAWJ-8" value="Activity" style="rounded=1;whiteSpace=wrap;html=1;arcSize=40;fontColor=#000000;fillColor=#ffffc0;strokeColor=#ff0000;" vertex="1" parent="1">
          <mxGeometry x="1140" y="322" width="120" height="40" as="geometry" />
        </mxCell>
        <mxCell id="BTbRAFkYMJewCLEARAWJ-9" value="" style="edgeStyle=orthogonalEdgeStyle;html=1;verticalAlign=bottom;endArrow=open;endSize=8;strokeColor=#ff0000;rounded=0;" edge="1" parent="1" source="BTbRAFkYMJewCLEARAWJ-8">
          <mxGeometry relative="1" as="geometry">
            <mxPoint x="1200" y="422" as="targetPoint" />
          </mxGeometry>
        </mxCell>
        <mxCell id="BTbRAFkYMJewCLEARAWJ-10" value="Activity" style="rounded=1;whiteSpace=wrap;html=1;arcSize=40;fontColor=#000000;fillColor=#ffffc0;strokeColor=#ff0000;" vertex="1" parent="1">
          <mxGeometry x="1140" y="422" width="120" height="40" as="geometry" />
        </mxCell>
        <mxCell id="BTbRAFkYMJewCLEARAWJ-11" value="" style="edgeStyle=orthogonalEdgeStyle;html=1;verticalAlign=bottom;endArrow=open;endSize=8;strokeColor=#ff0000;rounded=0;" edge="1" parent="1" source="BTbRAFkYMJewCLEARAWJ-10">
          <mxGeometry relative="1" as="geometry">
            <mxPoint x="1200" y="522" as="targetPoint" />
          </mxGeometry>
        </mxCell>
        <mxCell id="BTbRAFkYMJewCLEARAWJ-12" value="ULF RBD" style="rounded=0;whiteSpace=wrap;html=1;" vertex="1" parent="1">
          <mxGeometry x="80" y="283" width="120" height="60" as="geometry" />
        </mxCell>
        <mxCell id="BTbRAFkYMJewCLEARAWJ-14" value="ULF RBD" style="rounded=0;whiteSpace=wrap;html=1;" vertex="1" parent="1">
          <mxGeometry x="80" y="350" width="120" height="60" as="geometry" />
        </mxCell>
        <mxCell id="BTbRAFkYMJewCLEARAWJ-15" value="&lt;h1&gt;A&lt;/h1&gt;&lt;div&gt;&lt;br&gt;&lt;/div&gt;&lt;div&gt;ABCDEFGHI&lt;/div&gt;" style="text;html=1;strokeColor=none;fillColor=none;spacing=5;spacingTop=-20;whiteSpace=wrap;overflow=hidden;rounded=0;" vertex="1" parent="1">
          <mxGeometry x="155" y="520" width="190" height="120" as="geometry" />
        </mxCell>
        <mxCell id="BTbRAFkYMJewCLEARAWJ-16" value="&lt;h1&gt;A&lt;/h1&gt;&lt;div&gt;&lt;br&gt;&lt;/div&gt;&lt;div&gt;ABCDEFGHI&lt;/div&gt;" style="text;html=1;strokeColor=none;fillColor=none;spacing=5;spacingTop=-20;whiteSpace=wrap;overflow=hidden;rounded=0;" vertex="1" parent="1">
          <mxGeometry x="305" y="520" width="190" height="120" as="geometry" />
        </mxCell>
        <mxCell id="BTbRAFkYMJewCLEARAWJ-17" value="&lt;h1&gt;A&lt;/h1&gt;&lt;div&gt;&lt;br&gt;&lt;/div&gt;&lt;div&gt;ABCDEFGHI&lt;/div&gt;" style="text;html=1;strokeColor=none;fillColor=none;spacing=5;spacingTop=-20;whiteSpace=wrap;overflow=hidden;rounded=0;" vertex="1" parent="1">
          <mxGeometry x="455" y="520" width="190" height="120" as="geometry" />
        </mxCell>
        <mxCell id="BTbRAFkYMJewCLEARAWJ-18" value="&lt;h1&gt;A&lt;/h1&gt;&lt;div&gt;&lt;br&gt;&lt;/div&gt;&lt;div&gt;ABCDEFGHI&lt;/div&gt;" style="text;html=1;strokeColor=none;fillColor=none;spacing=5;spacingTop=-20;whiteSpace=wrap;overflow=hidden;rounded=0;" vertex="1" parent="1">
          <mxGeometry x="605" y="520" width="190" height="120" as="geometry" />
        </mxCell>
        <mxCell id="BTbRAFkYMJewCLEARAWJ-19" value="&lt;h1&gt;A&lt;/h1&gt;&lt;div&gt;&lt;br&gt;&lt;/div&gt;&lt;div&gt;ABCDEFGHI&lt;/div&gt;" style="text;html=1;strokeColor=none;fillColor=none;spacing=5;spacingTop=-20;whiteSpace=wrap;overflow=hidden;rounded=0;" vertex="1" parent="1">
          <mxGeometry x="755" y="520" width="190" height="120" as="geometry" />
        </mxCell>
        <mxCell id="BTbRAFkYMJewCLEARAWJ-20" value="&lt;h1&gt;A&lt;/h1&gt;&lt;div&gt;&lt;br&gt;&lt;/div&gt;&lt;div&gt;ABCDEFGHI&lt;/div&gt;" style="text;html=1;strokeColor=none;fillColor=none;spacing=5;spacingTop=-20;whiteSpace=wrap;overflow=hidden;rounded=0;" vertex="1" parent="1">
          <mxGeometry x="905" y="520" width="190" height="120" as="geometry" />
        </mxCell>
      </root>
    </mxGraphModel>
  </diagram>
</mxfile>
